<?xml version="1.0" encoding="UTF-8" standalone="no"?>
<svg width="256px" height="256px" viewBox="0 0 256 256" version="1.1" xmlns="http://www.w3.org/2000/svg" xmlns:xlink="http://www.w3.org/1999/xlink" xmlns:sketch="http://www.bohemiancoding.com/sketch/ns">
    <!-- Generator: Sketch 3.2.2 (9983) - http://www.bohemiancoding.com/sketch -->
    <title>Artboard 1</title>
    <desc>Created with Sketch.</desc>
    <defs></defs>
    <g id="Page-1" stroke="none" stroke-width="1" fill="none" fill-rule="evenodd" sketch:type="MSPage">
        <g id="Artboard-1" sketch:type="MSArtboardGroup">
            <g id="Rectangle-1-+-✍" sketch:type="MSLayerGroup">
                <rect id="Rectangle-1" fill-opacity="0" fill="#D8D8D8" sketch:type="MSShapeGroup" x="0" y="0" width="256" height="256"></rect>
                <path d="M223.002353,102.266771 C224.759224,109.209603 226.098819,115.75686 227.021176,121.908736 C227.943534,128.060613 228.404706,133.860867 228.404706,139.309672 C228.404706,146.076737 227.723928,153.50282 226.362353,161.588144 C225.000778,169.673467 223.002366,178.461731 220.367059,187.953198 L183.077647,188.216849 L180.310588,174.375195 C173.898007,176.04499 168.737274,177.231406 164.828235,177.934477 C160.919196,178.637549 157.822757,178.98908 155.538824,178.98908 C152.639986,178.98908 148.225912,178.395872 142.296471,177.209438 C136.367029,176.023005 131.952956,175.429797 129.054118,175.429797 C124.661939,175.429797 118.534941,176.242712 110.672941,177.868565 C102.810941,179.494418 97.167076,180.307332 93.7411765,180.307332 C89.6125284,180.307332 84.6274802,179.714124 78.7858824,178.527691 C72.9442845,177.341258 66.15847,175.517693 58.4282353,173.056942 L43.8023529,189.271451 C38.6195819,191.117014 33.8321788,192.742843 29.44,194.148986 C25.0478212,195.555129 20.8313928,196.785486 16.7905882,197.840094 L16,197.049142 C18.1960894,191.951873 20.2384219,187.381975 22.1270588,183.339314 C24.0156957,179.296652 25.9262648,175.341933 27.8588235,171.475039 C28.1223543,171.123503 28.8690135,170.003 30.0988235,168.113495 C31.3286336,166.22399 32.3827407,164.620131 33.2611765,163.301872 L29.8352941,160.138066 C34.7545344,147.307008 38.8831206,136.277737 42.2211765,127.049922 C45.5592324,117.822107 48.5897903,109.121726 51.3129412,100.948518 C62.4690754,90.1387915 72.4830929,81.5043225 81.3552941,75.0448518 C90.2274953,68.5853811 98.3968254,63.9935134 105.863529,61.2691108 L121.543529,71.5514821 C130.942792,60.5659877 137.728607,53.2277876 141.901176,49.5366615 C146.073746,45.8455354 149.34587,44 151.717647,44 C154.265111,44 156.702733,45.3402102 159.030588,48.0206708 C161.358443,50.7011314 162.522353,53.4914052 162.522353,56.3915757 C162.522353,58.8523264 161.138837,61.9941307 158.371765,65.8170827 C155.604692,69.6400347 149.433773,76.3850271 139.858824,86.0522621 C148.467494,91.8526031 156.219573,96.2906762 163.115294,99.3666147 C170.011015,102.442553 176.357618,104.33203 182.155294,105.035101 L185.712941,99.6302652 L223.002353,102.266771 Z M213.251765,180.307332 C215.184323,174.067572 216.61176,167.937758 217.534118,161.917707 C218.456475,155.897656 218.917647,149.899666 218.917647,143.923557 C218.917647,138.2111 218.456475,132.454787 217.534118,126.654446 C216.61176,120.854105 215.184323,115.097792 213.251765,109.385335 L191.642353,109.121685 C192.872163,115.712981 193.772546,121.491265 194.343529,126.456708 C194.914513,131.422152 195.2,135.794313 195.2,139.573323 C195.2,144.758476 194.585104,150.756466 193.355294,157.567473 C192.125484,164.378479 190.236875,172.39777 187.689412,181.625585 L213.251765,180.307332 Z M185.712941,166.597504 C187.030595,160.094091 187.952939,154.73325 188.48,150.514821 C189.007061,146.296391 189.270588,142.737144 189.270588,139.836973 C189.270588,135.882196 188.897259,131.575946 188.150588,126.918097 C187.403918,122.260247 186.240008,117.206996 184.658824,111.75819 C181.584298,111.582422 178.53178,111.296804 175.501176,110.901326 C172.470573,110.505848 169.461976,109.956582 166.475294,109.25351 C161.028992,106.704875 155.648654,103.958543 150.334118,101.014431 C145.019581,98.0703181 139.727085,94.8845725 134.456471,91.4570983 L118.776471,108.462559 L118.776471,110.703588 C118.776471,117.031233 117.634521,122.479956 115.350588,127.049922 C113.066655,131.619888 109.37728,135.794313 104.282353,139.573323 C108.762375,139.397555 113.154488,138.804347 117.458824,137.793682 C121.763159,136.783016 126.111351,135.310982 130.503529,133.377535 C129.625094,135.838286 128.417263,138.013381 126.88,139.902886 C125.342737,141.792391 123.432168,143.396249 121.148235,144.714509 L119.171765,144.714509 C118.117642,144.714509 115.658059,144.670567 111.792941,144.582683 C107.927824,144.494799 104.589818,144.450858 101.778824,144.450858 C89.5685664,144.450858 79.5545489,146.098657 71.7364706,149.394306 C63.9183923,152.689954 60.0094118,156.622702 60.0094118,161.192668 C60.0094118,163.741302 61.1952823,165.740632 63.5670588,167.190718 C65.9388354,168.640803 70.3309483,169.89313 76.7435294,170.947738 C78.0611831,169.805246 79.0274479,168.59686 79.6423529,167.322543 C80.257258,166.048226 80.5647059,164.708015 80.5647059,163.301872 C80.5647059,161.983613 80.3451002,160.357784 79.9058824,158.424337 C79.4666645,156.49089 78.7639264,154.074117 77.7976471,151.173947 C80.4329544,152.316438 82.2996024,153.766502 83.3976471,155.524181 C84.4956918,157.28186 85.0447059,159.61075 85.0447059,162.51092 C85.0447059,164.092832 84.6494157,165.69669 83.8588235,167.322543 C83.0682313,168.948396 81.9702031,170.42043 80.5647059,171.73869 C83.2878568,172.617529 85.8792034,173.276649 88.3388235,173.716069 C90.7984437,174.155488 93.2141058,174.375195 95.5858824,174.375195 C99.8902176,174.375195 105.79761,173.254691 113.308235,171.013651 C120.818861,168.77261 126.243121,167.652106 129.581176,167.652106 C132.040797,167.652106 136.301146,168.333197 142.362353,169.695398 C148.42356,171.057599 153.254884,171.73869 156.856471,171.73869 C159.755309,171.73869 163.532526,171.321247 168.188235,170.486349 C172.843945,169.651452 178.685455,168.355183 185.712941,166.597504 L185.712941,166.597504 Z M112.847059,113.867395 C109.421159,117.997941 105.885508,122.128424 102.24,126.25897 C98.5944916,130.389516 94.8831561,134.563941 91.1058824,138.782371 L92.4235294,139.046022 L93.7411765,139.046022 C98.9239475,139.046022 103.31606,136.717132 106.917647,132.059282 C110.519234,127.401433 112.495685,121.337531 112.847059,113.867395 L112.847059,113.867395 Z M115.745882,76.824493 C115.306664,76.4729572 114.647848,75.9456613 113.769412,75.2425897 C108.410954,70.9362759 105.248632,68.7831513 104.282353,68.7831513 C101.383515,68.7831513 94.9929906,72.4742221 85.1105882,79.8564743 C75.2281859,87.2387265 65.4996557,96.2466967 55.9247059,106.880655 C53.9043036,111.362737 52.0376556,115.778839 50.3247059,120.129095 C48.6117561,124.479351 47.0964772,128.807571 45.7788235,133.113885 C47.8870694,133.90484 49.5341117,135.091256 50.72,136.673167 C51.9058883,138.255078 52.5866658,140.188496 52.7623529,142.473479 L52.4988235,143.923557 C51.8839185,146.384308 51.049417,148.888963 49.9952941,151.437598 C48.9411712,153.986232 47.6235373,156.490887 46.0423529,158.951638 L48.4141176,158.951638 C50.2588328,158.951638 52.4548892,157.589457 55.0023529,154.865055 C57.5498167,152.140652 59.7458731,148.75717 61.5905882,144.714509 C61.9419625,144.011437 62.3811738,142.956845 62.9082353,141.550702 C65.455699,134.959405 68.2666513,129.598565 71.3411765,125.468019 C74.8549195,120.898053 83.6830665,111.099139 97.8258824,96.0709828 C105.468274,88.073543 111.441547,81.6581105 115.745882,76.824493 L115.745882,76.824493 Z M37.8729412,159.215289 L38.1364706,159.215289 C41.0353086,159.215289 43.4729313,157.743254 45.4494118,154.799142 C47.4258922,151.855029 48.4141176,148.141988 48.4141176,143.659906 C48.4141176,141.814343 48.1286303,140.276397 47.5576471,139.046022 C46.9866638,137.815646 45.9984384,136.629231 44.5929412,135.486739 L34.3152941,158.951638 L37.8729412,159.215289 Z M42.4847059,183.99844 C42.2211752,182.240761 41.3866737,180.417196 39.9811765,178.527691 C38.5756792,176.638186 36.5113862,174.638856 33.7882353,172.529641 C31.152928,175.869231 29.0447138,178.8133 27.4635294,181.361934 C25.882345,183.910569 24.7843168,186.195518 24.1694118,188.216849 L26.5411765,191.380655 C29.3521709,190.413932 32.0972415,189.315399 34.7764706,188.085023 C37.4556997,186.854648 40.0250857,185.492467 42.4847059,183.99844 L42.4847059,183.99844 Z" id="✍" fill="#444444" sketch:type="MSShapeGroup"></path>
            </g>
        </g>
    </g>
</svg>